<?xml version="1.0" encoding="UTF-8"?>
<svg version="1.1" xmlns="http://www.w3.org/2000/svg" width="184" height="161">
<path d="M0 0 C8.01640518 -0.04686993 16.03275069 -0.082141 24.04926014 -0.10362434 C27.77385701 -0.11394851 31.49835843 -0.12789238 35.22290039 -0.15087891 C68.22529971 -0.34887959 99.43671145 -0.34617654 124.890625 23.79296875 C132.35670719 31.67943845 141 44.84323617 141 56 C142.01320312 55.96519531 143.02640625 55.93039063 144.0703125 55.89453125 C145.4218583 55.86637405 146.77342219 55.83907597 148.125 55.8125 C148.79015625 55.78736328 149.4553125 55.76222656 150.140625 55.73632812 C154.87879896 55.6666491 157.98053886 56.51599673 162 59 C166.16709311 63.39859828 168.10372917 67.27158492 168.125 73.3125 C168.08375 74.529375 168.0425 75.74625 168 77 C167.401875 76.690625 166.80375 76.38125 166.1875 76.0625 C163.07009925 74.54833392 160.41338183 73.8638622 156.98828125 73.68359375 C156.23095703 73.64169922 155.47363281 73.59980469 154.69335938 73.55664062 C153.90767578 73.51732422 153.12199219 73.47800781 152.3125 73.4375 C151.51521484 73.39431641 150.71792969 73.35113281 149.89648438 73.30664062 C147.93118553 73.20072632 145.96561504 73.09987449 144 73 C144 77.95 144 82.9 144 88 C147.031875 87.87625 147.031875 87.87625 150.125 87.75 C155.63927751 87.76197454 158.90095486 88.00605858 163 92 C167.48131358 97.93471258 168.11769261 101.82075069 168 109 C166 108 164 107 162 106 C160.40737934 105.84824451 158.80935144 105.75099675 157.2109375 105.68359375 C156.26992187 105.64169922 155.32890625 105.59980469 154.359375 105.55664062 C153.37453125 105.51732422 152.3896875 105.47800781 151.375 105.4375 C149.88613281 105.37272461 149.88613281 105.37272461 148.3671875 105.30664062 C145.91160162 105.20038931 143.45591297 105.09835036 141 105 C140.89695557 105.63486328 140.79391113 106.26972656 140.68774414 106.92382812 C139.66807722 112.64038598 138.26139315 117.4313324 135.4375 122.5 C134.91349609 123.4580957 134.91349609 123.4580957 134.37890625 124.43554688 C131.01164928 130.36406846 126.88437369 135.24622454 122 140 C121.41089844 140.62132812 120.82179687 141.24265625 120.21484375 141.8828125 C98.07367232 163.58602669 62.76369222 161.30673205 34.23760986 161.1373291 C30.36871544 161.11659097 26.49979377 161.1076766 22.63085938 161.09765625 C15.08716659 161.07643164 7.54360642 161.04245688 0 161 C0.50660156 160.07380859 0.50660156 160.07380859 1.0234375 159.12890625 C5.60552926 150.42822913 7.2662261 142.79092643 7.4140625 133.02734375 C7.43342865 132.21882462 7.4527948 131.41030548 7.4727478 130.57728577 C7.5318499 128.03079303 7.57864711 125.48425336 7.625 122.9375 C7.66324387 121.19594537 7.70229917 119.45440836 7.7421875 117.71289062 C7.83749287 113.47540594 7.92177482 109.237833 8 105 C7.17435547 105.01377686 6.34871094 105.02755371 5.49804688 105.04174805 C4.41587891 105.05246338 3.33371094 105.06317871 2.21875 105.07421875 C0.6090332 105.09488403 0.6090332 105.09488403 -1.03320312 105.1159668 C-6.10843049 104.91758521 -8.82499902 103.24027881 -12.25 99.625 C-15.85054537 94.22418195 -16.21554258 90.358506 -16 84 C-14 85 -12 86 -10 87 C-8.6265365 87.15004973 -7.2471474 87.24838006 -5.8671875 87.31640625 C-5.06152344 87.35830078 -4.25585938 87.40019531 -3.42578125 87.44335938 C-2.58402344 87.48267578 -1.74226562 87.52199219 -0.875 87.5625 C0.39923828 87.62727539 0.39923828 87.62727539 1.69921875 87.69335938 C3.79928223 87.79954236 5.89961948 87.90028497 8 88 C8 83.05 8 78.1 8 73 C5.97875 73.0825 3.9575 73.165 1.875 73.25 C-3.63927751 73.23802546 -6.90095486 72.99394142 -11 69 C-15.48131358 63.06528742 -16.11769261 59.17924931 -16 52 C-14 53 -12 54 -10 55 C-8.6265365 55.15004973 -7.2471474 55.24838006 -5.8671875 55.31640625 C-5.06152344 55.35830078 -4.25585938 55.40019531 -3.42578125 55.44335938 C-2.16314453 55.50233398 -2.16314453 55.50233398 -0.875 55.5625 C0.39923828 55.62727539 0.39923828 55.62727539 1.69921875 55.69335938 C3.79928223 55.79954236 5.89961948 55.90028497 8 56 C7.93036273 51.09230354 7.84204612 46.18539852 7.73754883 41.27832031 C7.70461002 39.61434833 7.67648513 37.95027294 7.65356445 36.28613281 C7.55618844 18.10917254 7.55618844 18.10917254 0 2 C0 1.34 0 0.68 0 0 Z M33 9 C33 24.51 33 40.02 33 56 C59.4 56 85.8 56 113 56 C111.31984848 40.87863633 104.95443914 27.73828643 93 18 C79.22068452 9.17298426 63.8010305 8.84442679 48 8.9375 C43.05 8.958125 38.1 8.97875 33 9 Z M33 73 C33 77.95 33 82.9 33 88 C60.06 88 87.12 88 115 88 C115 83.05 115 78.1 115 73 C87.94 73 60.88 73 33 73 Z M33 105 C33 120.51 33 136.02 33 152 C68.66974845 153.37623901 68.66974845 153.37623901 99.265625 136.984375 C106.70180379 128.47631458 113 116.53128214 113 105 C86.6 105 60.2 105 33 105 Z " fill="#000000" transform="translate(16,0)"/>
</svg>
